<?xml version="1.0" encoding="utf-8"?>
<!-- Generator: Adobe Illustrator 28.2.0, SVG Export Plug-In . SVG Version: 6.00 Build 0)  -->
<svg version="1.1" id="Layer_1" xmlns="http://www.w3.org/2000/svg" xmlns:xlink="http://www.w3.org/1999/xlink" x="0px" y="0px"
	 viewBox="0 0 22 21" style="enable-background:new 0 0 22 21;" xml:space="preserve">
<path d="M10.6,17.7c-0.3-0.2-0.5-0.5-0.4-0.9l0-0.1l6.1-13c0.2-0.4,0.6-0.5,1-0.3c0.3,0.2,0.5,0.5,0.4,0.9l0,0.1l-6.1,13
	C11.4,17.7,11,17.8,10.6,17.7z"/>
<path d="M3.8,12.9c-0.3-0.2-0.4-0.7-0.2-1c0.2-0.3,0.6-0.4,0.9-0.2l0.1,0.1l6.6,4.8c0.1,0,0.2,0.2,0.3,0.4c0,0.3-0.1,0.6-0.5,0.8
	c-0.2,0-0.4,0-0.6,0c-0.2-0.1-0.4-0.3-0.6-0.4L3.8,12.9z"/>
</svg>
