<?xml version="1.0" encoding="utf-8"?>
<!-- Generator: Adobe Illustrator 26.0.2, SVG Export Plug-In . SVG Version: 6.00 Build 0)  -->
<svg version="1.1" id="Layer_1" xmlns="http://www.w3.org/2000/svg" xmlns:xlink="http://www.w3.org/1999/xlink" x="0px" y="0px"
	 viewBox="0 0 612 792" style="enable-background:new 0 0 612 792;" xml:space="preserve">
<style type="text/css">
	.st0{fill:#FFFFFF;}
	.st1{font-family:'BernardMT-Condensed';}
	.st2{font-size:36px;}
	.st3{fill:none;}
	.st4{fill:#F44336;}
</style>
<text transform="matrix(1 0 0 1 257.8 333.1187)" class="st0 st1 st2">DAO</text>
<path class="st3" d="M210.1,320.8h2.4c0-0.4,0-0.9,0-1.3c0-1.1,0.1-2.1,0.2-3l-2.6-0.1L210.1,320.8L210.1,320.8z"/>
<polygon class="st3" points="235.2,316.6 235.2,314.8 232.8,314.6 232.8,316.6 "/>
<path class="st3" d="M212.7,316.3c0.1-1.1,0.3-2.2,0.6-3.1l-3.2-0.2v3.2L212.7,316.3z"/>
<path class="st3" d="M235.2,310.7c0-1.1-0.4-1.7-1.2-1.7s-1.2,0.6-1.2,1.7v3.3l2.4,0.1V310.7z"/>
<path class="st3" d="M220.9,312.6c0-0.3,0-0.7,0.1-1.1c0.1-0.5,0.1-0.9,0.1-1.2c0-0.3-0.1-0.6-0.3-0.8s-0.5-0.3-0.8-0.3
	s-0.5,0.1-0.7,0.4s-0.3,0.5-0.3,0.8v2.9l2,0.1C220.9,313.1,220.9,312.8,220.9,312.6z"/>
<path class="st3" d="M210.1,321v3.9h3c-0.3-1.2-0.5-2.4-0.5-3.9H210.1z"/>
<path class="st3" d="M204.2,312.1c0-0.9-0.4-1.4-1.1-1.4c-0.5,0-1,0.3-1.6,0.8v0.8l2.7,0.2L204.2,312.1L204.2,312.1z"/>
<polygon class="st3" points="201.5,321 201.5,324.8 204.2,324.8 204.2,321 "/>
<path class="st3" d="M226.8,314.2l-2.1-0.2c-0.1,0.1-0.1,0.3-0.2,0.4c-0.3,0.5-0.8,0.8-1.5,0.8s-1.2-0.3-1.6-0.8
	c-0.2-0.2-0.3-0.5-0.4-0.7l-2.1-0.2v3.2l2.8,0.2l-2.8-0.2v4.1l2.7,0.1h-2.7v3.9h3.2v-0.4c0-0.6,0.1-1,0.3-1.1s0.6-0.2,1.2-0.2
	c0.5,0,0.8,0.1,1,0.3s0.3,0.5,0.3,1.1c0,0.1,0,0.2,0,0.3h2.1c-0.4-1.6-0.7-3.5-0.7-5.6C226.4,317.4,226.5,315.7,226.8,314.2z"/>
<polygon class="st3" points="204.2,316 201.5,315.8 201.5,320.6 204.2,320.7 "/>
<polygon class="st3" points="204.2,312.5 201.5,312.3 201.5,315.5 204.2,315.7 "/>
<path class="st3" d="M186.6,310.7c0-0.9-0.4-1.4-1.1-1.4c-1,0-1.6,0.7-1.6,2.1c0,0.8-0.1,1.4-0.3,1.7s-0.6,0.6-1.2,0.9
	c-0.1,0-0.2,0.1-0.4,0.1l3.9,0.3c0.2-0.1,0.4-0.2,0.6-0.3v-3.4H186.6z"/>
<path class="st3" d="M240.7,317.1v1.6h-7.9v6.2h4.9c0-0.1,0-0.1,0-0.2c0-0.7,0.1-1.1,0.2-1.3s0.5-0.2,1.3-0.2c0.6,0,1,0.1,1.2,0.2
	s0.3,0.5,0.3,1c0,0.2,0,0.3,0,0.5h2.8v-9.6l-2.8-0.2C240.7,315.8,240.7,316.4,240.7,317.1z"/>
<path class="st3" d="M184.2,318.3c-0.1,0.4-0.2,1.1-0.3,2l2.7,0.1v-4C185.3,317,184.5,317.6,184.2,318.3z"/>
<path class="st3" d="M183.1,315.6c0.6-0.2,1.2-0.5,1.8-0.7l-14.4-0.8v6l7.4,0.1c0.2-0.7,0.4-1.4,0.8-1.8
	C179.4,317.4,180.9,316.4,183.1,315.6z"/>
<path class="st3" d="M183.8,323.3c0,1.9,0.1,3.1,0.3,3.6s0.6,0.7,1.1,0.7c0.9,0,1.4-0.7,1.4-2.2v-4.5h-2.7
	C183.8,321.6,183.8,322.4,183.8,323.3z"/>
<polygon class="st3" points="192.4,315.3 192.4,320.5 195.7,320.5 195.7,315.5 "/>
<path class="st3" d="M219,327.3c0,0.4,0.1,0.8,0.4,1.1c0.2,0.3,0.6,0.5,1,0.5c0.6,0,1-0.4,1.4-1.1c0.3-0.7,0.4-1.5,0.5-2.5l-3.2-0.1
	L219,327.3L219,327.3z"/>
<path class="st3" d="M232.8,326c0,0.9,0.2,1.7,0.6,2.2s0.8,0.8,1.4,0.8c0.9,0,1.6-0.4,2.1-1.1c0.4-0.6,0.7-1.3,0.8-2.2l-4.9-0.1
	L232.8,326L232.8,326z"/>
<path class="st4" d="M170.5,314l-7.3-0.4c-0.1,0.9-0.1,1.9-0.1,2.9c0,1.2,0.1,2.3,0.1,3.4l7.2,0.1v-6H170.5z"/>
<path class="st4" d="M164.3,326.3c0.8,2.3,1.8,3.9,2.9,4.8s2.4,1.4,3.8,1.4c1.5,0,2.8-0.6,3.8-1.7s1.5-2.5,1.5-4.2
	c0-0.5-0.1-0.9-0.3-1.1s-0.5-0.3-1-0.3c-0.7,0-1.1,0.1-1.3,0.4s-0.3,0.7-0.4,1.3c-0.1,2.2-0.7,3.3-1.7,3.3c-0.8,0-1.2-0.7-1.2-2
	v-6.4h-7.1C163.5,323.5,163.9,325,164.3,326.3z"/>
<path class="st4" d="M170.5,306.5c0-1.8,0.4-2.8,1.1-2.8c0.9,0,1.6,1.3,2.1,3.8c0.2,1,0.4,1.6,0.6,1.9s0.6,0.4,1.1,0.4
	c0.4,0,0.7-0.1,0.8-0.2s0.2-0.5,0.2-0.9c0-0.1,0-0.2,0-0.3l-0.4-5.7c0-0.7-0.1-1.1-0.2-1.3s-0.3-0.2-0.5-0.2h-0.9
	c-0.2,0-0.4,0.1-0.6,0.4c-0.3,0.3-0.5,0.5-0.6,0.5s-0.3-0.1-0.5-0.2c-0.6-0.5-1.4-0.7-2.2-0.7c-1.4,0-2.6,0.5-3.7,1.6
	c-1,1.1-1.9,2.6-2.6,4.6c-0.4,1.2-0.7,2.6-0.8,4.2l7.2,0.5v-5.6H170.5z"/>
<path class="st4" d="M182.4,313c0.6-0.2,1-0.5,1.2-0.9s0.3-0.9,0.3-1.7c0-1.4,0.5-2.1,1.6-2.1c0.8,0,1.1,0.5,1.1,1.4v3.4
	c-0.2,0.1-0.4,0.2-0.6,0.3l6.5,0.5v-2.6c0-1.1-0.3-2-1-2.9s-1.5-1.5-2.6-1.9s-2.3-0.6-3.7-0.6c-2.1,0-3.8,0.5-5.1,1.4
	s-1.9,2.2-1.9,3.7c0,0.9,0.2,1.5,0.7,1.9l3.2,0.2C182.1,313.1,182.3,313,182.4,313z"/>
<path class="st4" d="M186.6,325.4c0,1.5-0.5,2.2-1.4,2.2c-0.5,0-0.9-0.2-1.1-0.7s-0.3-1.7-0.3-3.6c0-0.9,0-1.7,0.1-2.4h-6.2
	c-0.1,0.9-0.2,1.9-0.2,3c0,2.6,0.4,4.6,1.2,5.7c0.8,1.2,2,1.7,3.5,1.7c0.7,0,1.3-0.1,2-0.4s1.5-1,2.5-2c0.3,1,0.8,1.6,1.4,2
	s1.4,0.5,2.3,0.5c0.8,0,1.4-0.1,1.9-0.2s0.8-0.3,0.9-0.5s0.2-0.5,0.2-1c0-0.3-0.1-0.6-0.4-0.8c-0.3-0.3-0.5-0.4-0.5-0.5V321h-5.8
	L186.6,325.4L186.6,325.4z"/>
<path class="st4" d="M184.8,314.9c-0.5,0.2-1.1,0.5-1.8,0.7c-2.2,0.9-3.7,1.8-4.5,2.8c-0.3,0.4-0.6,1.1-0.8,1.8l6.1,0.1
	c0.1-0.9,0.2-1.6,0.3-2c0.3-0.7,1-1.4,2.4-2v4l5.8,0.1v-5.2L184.8,314.9z"/>
<polygon class="st4" points="194.7,315.5 194.7,320.5 200.5,320.6 200.5,315.8 "/>
<path class="st4" d="M195.7,328.2c0,0.6,0,1-0.1,1.2s-0.3,0.4-0.5,0.6c-0.2,0.1-0.3,0.4-0.3,0.7v0.7c0,0.4,0,0.6,0.1,0.7
	s0.3,0.1,0.6,0.1h6.2c0.6,0,0.9-0.2,0.9-0.6v-0.9c0-0.4-0.1-0.6-0.4-0.8c-0.4-0.2-0.6-0.6-0.6-1V326l-5.8-0.1L195.7,328.2
	L195.7,328.2z"/>
<polygon class="st4" points="203.8,321.3 203.8,325.2 209.6,325.2 209.6,321.3 "/>
<polygon class="st4" points="200.3,311.8 194.5,311.4 194.5,314.6 200.3,315 "/>
<path class="st4" d="M200.5,310.5c0.6-0.5,1.1-0.8,1.6-0.8c0.8,0,1.1,0.5,1.1,1.4v0.3l5.8,0.3V310c0-1.2-0.3-2.2-1-3
	s-1.6-1.2-2.8-1.2c-1.8,0-3.4,0.9-4.8,2.6v-1.8c0-0.2,0-0.4-0.1-0.4s-0.2-0.1-0.5-0.1h-5.7c-0.3,0-0.5,0.2-0.5,0.5v0.9
	c0,0.3,0.1,0.5,0.3,0.6c0.4,0.2,0.6,0.5,0.6,0.9v1.8l5.8,0.3v-0.6H200.5z"/>
<path class="st4" d="M204.2,329.8c0,1,0.4,1.7,1.1,2.3h4.9c0.3,0,0.5-0.1,0.6-0.2s0.1-0.4,0.1-1c0-0.7-0.1-1.1-0.4-1.3
	c-0.3-0.2-0.4-0.5-0.4-0.9v-2.8l-5.8-0.1v4H204.2z"/>
<polygon class="st4" points="208.9,315.6 208.9,312.5 203.1,312 203.1,315.2 "/>
<polygon class="st4" points="209.1,316.3 203.2,316 203.2,320.7 209.1,320.8 "/>
<polygon class="st4" points="201.1,321.3 195.2,321.3 195.2,325.1 201.1,325.2 "/>
<path class="st4" d="M224.7,323.5c-0.2-0.2-0.5-0.3-1-0.3c-0.6,0-0.9,0.1-1.2,0.2s-0.3,0.5-0.3,1.1v0.4h2.7c0-0.1,0-0.2,0-0.3
	C225,324.1,224.9,323.7,224.7,323.5z"/>
<path class="st4" d="M218,309.3c0-0.3,0.1-0.6,0.3-0.8s0.4-0.4,0.7-0.4s0.6,0.1,0.8,0.3s0.3,0.5,0.3,0.8s0,0.7-0.1,1.2
	c-0.1,0.4-0.1,0.8-0.1,1.1c0,0.3,0,0.5,0.1,0.8l3.9,0.2c0.1-0.3,0.1-0.7,0.1-1.1c0-1.5-0.5-2.8-1.5-3.9s-2.3-1.7-4-1.7
	c-1.4,0-2.6,0.5-3.6,1.4s-1.8,2.3-2.4,4.2c-0.1,0.1-0.1,0.3-0.1,0.5l5.7,0.3L218,309.3L218,309.3z"/>
<path class="st4" d="M212.1,321.3c0.1,1.4,0.3,2.7,0.5,3.9h5.9v-3.9H212.1z"/>
<path class="st4" d="M223,315.3c0.7,0,1.2-0.3,1.5-0.8c0.1-0.1,0.2-0.3,0.2-0.4l-3.7-0.3c0.1,0.3,0.2,0.5,0.4,0.7
	C221.8,315,222.3,315.3,223,315.3z"/>
<path class="st4" d="M221.7,328.8c-0.3,0.7-0.8,1.1-1.4,1.1c-0.4,0-0.8-0.2-1-0.5s-0.4-0.7-0.4-1.1v-2l-5.9-0.1
	c0.3,1.2,0.8,2.2,1.3,3.1c1.3,2.1,3,3.1,5,3.1c1.7,0,3.1-0.7,4-2c0.8-1.1,1.3-2.5,1.4-4l-2.7-0.1C222.2,327.3,222,328.2,221.7,328.8
	z"/>
<path class="st4" d="M211.5,319.5c0,0.5,0,0.9,0,1.3l6.5,0.1v-4.1l-6.4-0.4C211.5,317.4,211.5,318.4,211.5,319.5z"/>
<path class="st4" d="M217.8,316.3v-3.2l-5.7-0.4c-0.3,0.9-0.5,2-0.6,3.1L217.8,316.3z"/>
<path class="st4" d="M240.7,318.8v-1.6c0-0.7,0-1.3-0.1-1.9l-5.4-0.4v1.8h-2.4v-1.9l-6-0.4c-0.3,1.5-0.5,3.2-0.5,5.1
	c0,2.2,0.2,4.1,0.7,5.6h5.8v-6.2h7.9V318.8z"/>
<path class="st4" d="M240.5,323.5c-0.2-0.1-0.6-0.2-1.2-0.2c-0.7,0-1.2,0.1-1.3,0.2s-0.2,0.6-0.2,1.3c0,0.1,0,0.1,0,0.2h2.9
	c0-0.2,0-0.3,0-0.5C240.7,323.9,240.6,323.6,240.5,323.5z"/>
<path class="st4" d="M232.8,309.7c0-1.1,0.4-1.7,1.2-1.7s1.2,0.6,1.2,1.7v3.4l5.4,0.3c-0.2-2-0.8-3.7-1.7-4.9
	c-1.2-1.8-2.8-2.7-4.8-2.7c-2.3,0-4.2,1.1-5.6,3.2c-0.7,1-1.2,2.2-1.5,3.7l5.9,0.3L232.8,309.7L232.8,309.7z"/>
<path class="st4" d="M236.9,328.9c-0.5,0.8-1.2,1.1-2.1,1.1c-0.6,0-1-0.3-1.4-0.8s-0.6-1.3-0.6-2.2v-0.4l-5.6-0.1
	c0.4,1.1,0.9,2.1,1.5,2.9c1.5,2,3.4,3,5.6,3c1.9,0,3.5-0.7,4.7-2.1c0.9-1.1,1.4-2.3,1.7-3.6l-2.9-0.1
	C237.6,327.5,237.3,328.3,236.9,328.9z"/>
<path class="st4" d="M243.5,328.9c0,0.4-0.2,0.7-0.6,0.9c-0.2,0.1-0.3,0.3-0.3,0.7v1c0,0.4,0.2,0.7,0.7,0.7h6.6c0.3,0,0.5,0,0.6-0.1
	s0.1-0.3,0.1-0.5v-0.8c0-0.4-0.2-0.8-0.6-1c-0.4-0.2-0.6-0.5-0.6-1v-1.9l-5.8-0.1L243.5,328.9L243.5,328.9z"/>
<path class="st4" d="M249.3,312.7c0-1.2,0.3-1.7,0.8-1.7c0.2,0,0.4,0.2,0.6,0.6c0.3,0.7,0.8,1.1,1.4,1.1c1.2,0,1.8-1.1,1.8-3.3
	c0-1-0.2-1.8-0.5-2.5s-0.9-1-1.6-1c-0.5,0-1,0.2-1.4,0.6s-0.9,1.3-1.3,2.9c-0.2,0.7-0.4,1.2-0.5,1.5v-3.6c0-0.5,0-0.8-0.1-0.9
	s-0.2-0.2-0.5-0.2h-4.7c-0.3,0-0.5,0.1-0.6,0.2s-0.2,0.4-0.2,0.8c0,0.5,0,0.8,0.1,0.9s0.2,0.2,0.5,0.4c0.3,0.2,0.4,0.5,0.4,0.9v4.4
	l5.8,0.3V312.7z"/>
<polygon class="st4" points="243.5,315.4 243.5,325 249.3,325 249.3,315.8 "/>
</svg>
